<?xml version="1.0" encoding="UTF-8" standalone="no"?>
<!-- Created with Inkscape (http://www.inkscape.org/) -->

<svg
   xmlns:dc="http://purl.org/dc/elements/1.1/"
   xmlns:cc="http://creativecommons.org/ns#"
   xmlns:rdf="http://www.w3.org/1999/02/22-rdf-syntax-ns#"
   xmlns:svg="http://www.w3.org/2000/svg"
   xmlns="http://www.w3.org/2000/svg"
   version="1.1"
   width="270"
   height="80"
   id="svg2"
   xml:space="preserve"><metadata
     id="metadata8"><rdf:RDF><cc:Work
         rdf:about=""><dc:format>image/svg+xml</dc:format><dc:type
           rdf:resource="http://purl.org/dc/dcmitype/StillImage" /><dc:title></dc:title></cc:Work></rdf:RDF></metadata><defs
     id="defs6"><clipPath
       id="clipPath16"><path
         d="M 0,40 135,40 135,0 0,0 0,40 z"
         id="path18" /></clipPath></defs><g
     transform="matrix(2,0,0,-2,0,80)"
     id="g10"><g
       id="g12"
       style="stroke:none"><g
         clip-path="url(#clipPath16)"
         id="g14"
         style="stroke:none"><g
           transform="translate(130.197,0)"
           id="g20"
           style="fill:#000000;fill-opacity:1;stroke:none"><path
             d="m 0,0 -125.468,0 c -2.607,0 -4.729,2.128 -4.729,4.733 l 0,30.541 c 0,2.606 2.122,4.726 4.729,4.726 L 0,40 c 2.606,0 4.803,-2.12 4.803,-4.726 l 0,-30.541 C 4.803,2.128 2.606,0 0,0"
             id="path22"
             style="fill:#000000;fill-opacity:1;fill-rule:nonzero;stroke:none" /></g><g
           transform="translate(134.032,4.732)"
           id="g24"
           style="fill:none;stroke:none"><path
             d="m 0,0 c 0,-2.116 -1.714,-3.83 -3.834,-3.83 l -125.469,0 c -2.119,0 -3.839,1.714 -3.839,3.83 l 0,30.543 c 0,2.115 1.72,3.835 3.839,3.835 l 125.468,0 c 2.121,0 3.834,-1.72 3.834,-3.835 L 0,0 z"
             id="path26"
             style="fill:none;stroke:none" /></g><g
           transform="translate(30.128,20.216)"
           id="g28"
           style="stroke:none"><path
             d="M 0,0 C -0.029,3.223 2.639,4.791 2.761,4.864 1.25,7.067 -1.092,7.368 -1.915,7.392 -3.882,7.599 -5.79,6.215 -6.792,6.215 c -1.022,0 -2.565,1.157 -4.228,1.123 -2.14,-0.033 -4.142,-1.272 -5.24,-3.196 -2.266,-3.923 -0.576,-9.688 1.595,-12.859 1.086,-1.553 2.355,-3.287 4.016,-3.226 1.625,0.067 2.232,1.036 4.193,1.036 1.943,0 2.513,-1.036 4.207,-0.997 1.744,0.028 2.842,1.56 3.89,3.127 1.255,1.78 1.759,3.533 1.779,3.623 C 3.379,-5.14 0.033,-3.863 0,0"
             id="path30"
             style="fill:#ffffff;fill-opacity:1;fill-rule:nonzero;stroke:none" /></g><g
           transform="translate(26.928,29.694)"
           id="g32"
           style="stroke:none"><path
             d="M 0,0 C 0.874,1.093 1.472,2.58 1.306,4.089 0.041,4.033 -1.541,3.214 -2.452,2.145 -3.258,1.203 -3.978,-0.341 -3.792,-1.793 -2.371,-1.899 -0.912,-1.076 0,0"
             id="path34"
             style="fill:#ffffff;fill-opacity:1;fill-rule:nonzero;stroke:none" /></g><g
           transform="translate(49.755,14.045)"
           id="g36"
           style="stroke:none"><path
             d="M 0,0 -1.125,3.475 C -1.244,3.83 -1.467,4.666 -1.796,5.982 l -0.04,0 C -1.967,5.416 -2.178,4.58 -2.468,3.475 L -3.573,0 0,0 z m 3.89,-5.549 -2.271,0 -1.244,3.909 -4.324,0 -1.185,-3.909 -2.211,0 4.284,13.308 2.646,0 4.305,-13.308 z"
             id="path38"
             style="fill:#ffffff;fill-opacity:1;fill-rule:nonzero;stroke:none" /></g><g
           transform="translate(62.49,13.334)"
           id="g40"
           style="stroke:none"><path
             d="m 0,0 c 0,0.934 -0.21,1.704 -0.632,2.31 -0.461,0.632 -1.08,0.948 -1.856,0.948 -0.526,0 -1.004,-0.176 -1.431,-0.523 C -4.347,2.385 -4.627,1.928 -4.758,1.362 -4.824,1.098 -4.857,0.882 -4.857,0.712 l 0,-1.6 c 0,-0.698 0.214,-1.287 0.642,-1.768 0.428,-0.481 0.984,-0.721 1.668,-0.721 0.803,0 1.428,0.31 1.875,0.928 C -0.224,-1.83 0,-1.014 0,0 m 2.172,0.078 c 0,-1.632 -0.441,-2.922 -1.323,-3.869 -0.79,-0.843 -1.771,-1.264 -2.942,-1.264 -1.264,0 -2.172,0.454 -2.725,1.362 l -0.04,0 0,-5.055 -2.132,0 0,10.347 c 0,1.026 -0.027,2.079 -0.079,3.159 l 1.875,0 0.119,-1.521 0.04,0 c 0.711,1.146 1.79,1.718 3.238,1.718 1.132,0 2.077,-0.447 2.833,-1.342 C 1.794,2.717 2.172,1.539 2.172,0.078"
             id="path42"
             style="fill:#ffffff;fill-opacity:1;fill-rule:nonzero;stroke:none" /></g><g
           transform="translate(73.527,13.334)"
           id="g44"
           style="stroke:none"><path
             d="M 0,0 C 0,0.934 -0.211,1.704 -0.633,2.31 -1.094,2.942 -1.711,3.258 -2.488,3.258 -3.015,3.258 -3.492,3.082 -3.92,2.735 -4.348,2.385 -4.627,1.928 -4.758,1.362 -4.823,1.098 -4.857,0.882 -4.857,0.712 l 0,-1.6 c 0,-0.698 0.214,-1.287 0.64,-1.768 0.428,-0.48 0.984,-0.721 1.67,-0.721 0.803,0 1.428,0.31 1.875,0.928 C -0.224,-1.83 0,-1.014 0,0 m 2.172,0.078 c 0,-1.632 -0.441,-2.922 -1.324,-3.869 -0.789,-0.843 -1.77,-1.264 -2.941,-1.264 -1.264,0 -2.172,0.454 -2.724,1.362 l -0.04,0 0,-5.055 -2.132,0 0,10.347 c 0,1.026 -0.027,2.079 -0.079,3.159 l 1.875,0 0.119,-1.521 0.04,0 c 0.71,1.146 1.789,1.718 3.238,1.718 1.131,0 2.076,-0.447 2.834,-1.342 C 1.793,2.717 2.172,1.539 2.172,0.078"
             id="path46"
             style="fill:#ffffff;fill-opacity:1;fill-rule:nonzero;stroke:none" /></g><g
           transform="translate(88.039,12.228)"
           id="g48"
           style="stroke:none"><path
             d="m 0,0 c 0,-1.132 -0.393,-2.053 -1.182,-2.764 -0.867,-0.777 -2.074,-1.165 -3.625,-1.165 -1.432,0 -2.58,0.276 -3.449,0.829 l 0.494,1.777 c 0.936,-0.566 1.963,-0.85 3.082,-0.85 0.803,0 1.428,0.182 1.877,0.544 0.447,0.362 0.67,0.848 0.67,1.454 0,0.54 -0.184,0.995 -0.553,1.364 -0.367,0.369 -0.98,0.712 -1.836,1.029 -2.33,0.869 -3.494,2.142 -3.494,3.816 0,1.094 0.408,1.991 1.225,2.689 0.814,0.699 1.9,1.048 3.258,1.048 1.211,0 2.217,-0.211 3.02,-0.632 L -1.046,7.401 c -0.75,0.408 -1.598,0.612 -2.547,0.612 -0.75,0 -1.336,-0.185 -1.756,-0.553 -0.355,-0.329 -0.533,-0.73 -0.533,-1.205 0,-0.526 0.203,-0.961 0.611,-1.303 0.355,-0.316 1,-0.658 1.936,-1.027 1.145,-0.461 1.986,-1 2.527,-1.618 C -0.269,1.691 0,0.92 0,0"
             id="path50"
             style="fill:#ffffff;fill-opacity:1;fill-rule:nonzero;stroke:none" /></g><g
           transform="translate(95.088,16.492)"
           id="g52"
           style="stroke:none"><path
             d="m 0,0 -2.35,0 0,-4.659 c 0,-1.185 0.414,-1.777 1.244,-1.777 0.381,0 0.697,0.033 0.947,0.099 L -0.1,-7.956 c -0.42,-0.157 -0.973,-0.236 -1.658,-0.236 -0.842,0 -1.5,0.257 -1.975,0.77 -0.473,0.514 -0.711,1.376 -0.711,2.587 l 0,4.837 -1.4,0 0,1.6 1.4,0 0,1.757 2.094,0.632 0,-2.389 2.35,0 C 0,1.602 0,0 0,0"
             id="path54"
             style="fill:#ffffff;fill-opacity:1;fill-rule:nonzero;stroke:none" /></g><g
           transform="translate(103.479,13.304)"
           id="g56"
           style="stroke:none"><path
             d="m 0,0 c 0,0.885 -0.189,1.644 -0.572,2.277 -0.447,0.766 -1.086,1.148 -1.914,1.148 -0.857,0 -1.508,-0.383 -1.955,-1.148 -0.383,-0.634 -0.572,-1.405 -0.572,-2.317 0,-0.885 0.189,-1.644 0.572,-2.276 0.461,-0.766 1.105,-1.148 1.936,-1.148 0.814,0 1.453,0.39 1.914,1.168 C -0.198,-1.651 0,-0.884 0,0 m 2.212,0.069 c 0,-1.475 -0.422,-2.686 -1.264,-3.633 -0.883,-0.975 -2.055,-1.461 -3.516,-1.461 -1.408,0 -2.529,0.467 -3.365,1.401 -0.836,0.934 -1.254,2.113 -1.254,3.534 0,1.487 0.43,2.705 1.293,3.652 0.861,0.948 2.023,1.422 3.484,1.422 1.408,0 2.541,-0.467 3.396,-1.402 C 1.804,2.675 2.212,1.504 2.212,0.069"
             id="path58"
             style="fill:#ffffff;fill-opacity:1;fill-rule:nonzero;stroke:none" /></g><g
           transform="translate(112.621,16.217)"
           id="g60"
           style="stroke:none"><path
             d="m 0,0 c -0.211,0.039 -0.436,0.059 -0.672,0.059 -0.75,0 -1.33,-0.283 -1.738,-0.85 -0.355,-0.5 -0.533,-1.132 -0.533,-1.895 l 0,-5.035 -2.131,0 0.02,6.574 c 0,1.106 -0.027,2.113 -0.08,3.021 l 1.857,0 0.078,-1.836 0.059,0 c 0.225,0.631 0.58,1.139 1.066,1.52 0.475,0.343 0.988,0.514 1.541,0.514 C -0.336,2.072 -0.158,2.058 0,2.033 0,2.033 0,0 0,0"
             id="path62"
             style="fill:#ffffff;fill-opacity:1;fill-rule:nonzero;stroke:none" /></g><g
           transform="translate(120.123,14.301)"
           id="g64"
           style="stroke:none"><path
             d="M 0,0 C 0.014,0.632 -0.125,1.178 -0.414,1.639 -0.783,2.232 -1.35,2.528 -2.113,2.528 -2.81,2.528 -3.377,2.239 -3.81,1.659 -4.165,1.198 -4.376,0.645 -4.441,0.001 L 0,0.001 0,0 z m 2.033,-0.553 c 0,-0.382 -0.025,-0.704 -0.078,-0.967 l -6.396,0 c 0.025,-0.948 0.334,-1.673 0.928,-2.173 0.539,-0.447 1.236,-0.671 2.092,-0.671 0.947,0 1.811,0.151 2.588,0.454 l 0.334,-1.48 c -0.908,-0.396 -1.98,-0.593 -3.217,-0.593 -1.488,0 -2.656,0.438 -3.506,1.313 -0.848,0.875 -1.273,2.05 -1.273,3.524 0,1.447 0.395,2.652 1.186,3.613 0.828,1.026 1.947,1.539 3.355,1.539 1.383,0 2.43,-0.513 3.141,-1.539 0.563,-0.815 0.846,-1.823 0.846,-3.02"
             id="path66"
             style="fill:#ffffff;fill-opacity:1;fill-rule:nonzero;stroke:none" /></g><g
           transform="translate(47.945,29.962)"
           id="g68"
           style="stroke:none"><path
             d="M 0,0 C 0,0.763 -0.202,1.348 -0.606,1.756 -1.01,2.163 -1.6,2.367 -2.377,2.367 c -0.33,0 -0.611,-0.022 -0.844,-0.068 l 0,-4.889 c 0.129,-0.02 0.365,-0.029 0.708,-0.029 0.802,0 1.421,0.223 1.857,0.669 C -0.22,-1.504 0,-0.854 0,0 m 1.105,0.029 c 0,-1.177 -0.353,-2.063 -1.058,-2.658 -0.653,-0.549 -1.581,-0.824 -2.783,-0.824 -0.596,0 -1.106,0.026 -1.533,0.078 l 0,6.431 c 0.557,0.09 1.157,0.136 1.805,0.136 1.145,0 2.008,-0.249 2.59,-0.747 C 0.778,1.882 1.105,1.077 1.105,0.029"
             id="path70"
             style="fill:#ffffff;fill-opacity:1;fill-rule:nonzero;stroke:none" /></g><g
           transform="translate(53.822,28.929)"
           id="g72"
           style="stroke:none"><path
             d="m 0,0 c 0,0.435 -0.094,0.808 -0.281,1.119 -0.22,0.376 -0.533,0.564 -0.94,0.564 -0.421,0 -0.741,-0.188 -0.961,-0.564 -0.188,-0.311 -0.281,-0.69 -0.281,-1.138 0,-0.435 0.094,-0.808 0.281,-1.119 0.227,-0.376 0.543,-0.564 0.951,-0.564 0.4,0 0.714,0.191 0.94,0.574 C -0.097,-0.811 0,-0.435 0,0 m 1.087,0.034 c 0,-0.725 -0.207,-1.319 -0.621,-1.785 -0.434,-0.479 -1.009,-0.718 -1.727,-0.718 -0.692,0 -1.243,0.229 -1.654,0.689 -0.41,0.459 -0.615,1.038 -0.615,1.736 0,0.73 0.211,1.329 0.635,1.794 0.424,0.465 0.994,0.698 1.712,0.698 0.692,0 1.248,-0.229 1.669,-0.688 0.4,-0.446 0.601,-1.022 0.601,-1.726"
             id="path74"
             style="fill:#ffffff;fill-opacity:1;fill-rule:nonzero;stroke:none" /></g><g
           transform="translate(62.765,31.281)"
           id="g76"
           style="stroke:none"><path
             d="m 0,0 -1.475,-4.714 -0.96,0 -0.611,2.047 c -0.155,0.511 -0.281,1.019 -0.379,1.523 l -0.019,0 c -0.091,-0.518 -0.217,-1.025 -0.379,-1.523 l -0.649,-2.047 -0.971,0 L -6.83,0 -5.753,0 -5.22,-2.241 c 0.129,-0.53 0.235,-1.035 0.32,-1.513 l 0.019,0 c 0.078,0.394 0.207,0.896 0.389,1.503 l 0.669,2.25 0.854,0 0.641,-2.202 c 0.155,-0.537 0.281,-1.054 0.378,-1.552 l 0.029,0 c 0.071,0.485 0.178,1.002 0.32,1.552 l 0.572,2.202 1.029,0 L 0,0 z"
             id="path78"
             style="fill:#ffffff;fill-opacity:1;fill-rule:nonzero;stroke:none" /></g><g
           transform="translate(68.198,26.567)"
           id="g80"
           style="stroke:none"><path
             d="m 0,0 -1.048,0 0,2.7 c 0,0.832 -0.316,1.248 -0.95,1.248 -0.311,0 -0.562,-0.114 -0.757,-0.343 C -2.948,3.376 -3.046,3.106 -3.046,2.797 l 0,-2.796 -1.048,0 0,3.366 c 0,0.414 -0.013,0.863 -0.038,1.349 l 0.921,0 0.049,-0.737 0.029,0 c 0.122,0.229 0.304,0.418 0.543,0.569 0.284,0.176 0.602,0.265 0.95,0.265 0.44,0 0.806,-0.142 1.097,-0.427 C -0.181,4.037 0,3.516 0,2.824 L 0,0 z"
             id="path82"
             style="fill:#ffffff;fill-opacity:1;fill-rule:nonzero;stroke:none" /></g><path
           d="m 71.088,26.567 -1.047,0 0,6.877 1.047,0 0,-6.877 z"
           id="path84"
           style="fill:#ffffff;fill-opacity:1;fill-rule:nonzero;stroke:none" /><g
           transform="translate(76.17,28.929)"
           id="g86"
           style="stroke:none"><path
             d="M 0,0 C 0,0.435 -0.094,0.808 -0.281,1.119 -0.5,1.495 -0.814,1.683 -1.22,1.683 c -0.422,0 -0.742,-0.188 -0.961,-0.564 -0.188,-0.311 -0.281,-0.69 -0.281,-1.138 0,-0.435 0.094,-0.808 0.281,-1.119 0.227,-0.376 0.543,-0.564 0.951,-0.564 0.4,0 0.713,0.191 0.939,0.574 C -0.096,-0.811 0,-0.435 0,0 m 1.088,0.034 c 0,-0.725 -0.207,-1.319 -0.621,-1.785 -0.434,-0.479 -1.01,-0.718 -1.727,-0.718 -0.693,0 -1.244,0.229 -1.654,0.689 -0.41,0.459 -0.615,1.038 -0.615,1.736 0,0.73 0.211,1.329 0.635,1.794 0.424,0.465 0.994,0.698 1.711,0.698 0.693,0 1.248,-0.229 1.67,-0.688 0.4,-0.446 0.601,-1.022 0.601,-1.726"
             id="path88"
             style="fill:#ffffff;fill-opacity:1;fill-rule:nonzero;stroke:none" /></g><g
           transform="translate(81.242,28.187)"
           id="g90"
           style="stroke:none"><path
             d="m 0,0 0,0.727 c -1.156,0.02 -1.734,-0.297 -1.734,-0.95 0,-0.246 0.066,-0.43 0.201,-0.553 0.135,-0.123 0.307,-0.184 0.512,-0.184 0.23,0 0.445,0.073 0.641,0.218 0.197,0.146 0.318,0.331 0.363,0.558 C -0.006,-0.133 0,-0.071 0,0 m 1.088,-1.62 -0.941,0 -0.078,0.543 -0.029,0 c -0.322,-0.433 -0.781,-0.65 -1.377,-0.65 -0.445,0 -0.805,0.143 -1.076,0.427 -0.246,0.258 -0.369,0.579 -0.369,0.96 0,0.576 0.24,1.015 0.723,1.319 0.482,0.304 1.16,0.453 2.033,0.446 l 0,0.088 c 0,0.621 -0.326,0.931 -0.979,0.931 -0.465,0 -0.875,-0.117 -1.229,-0.349 l -0.213,0.688 c 0.438,0.271 0.979,0.407 1.617,0.407 1.232,0 1.85,-0.65 1.85,-1.95 l 0,-1.736 c 0,-0.471 0.023,-0.846 0.068,-1.124"
             id="path92"
             style="fill:#ffffff;fill-opacity:1;fill-rule:nonzero;stroke:none" /></g><g
           transform="translate(87.199,28.555)"
           id="g94"
           style="stroke:none"><path
             d="m 0,0 0,0.786 c 0,0.136 -0.01,0.246 -0.029,0.33 -0.059,0.252 -0.186,0.464 -0.379,0.635 -0.195,0.171 -0.43,0.257 -0.701,0.257 -0.391,0 -0.697,-0.155 -0.922,-0.466 -0.223,-0.311 -0.336,-0.708 -0.336,-1.193 0,-0.466 0.107,-0.844 0.322,-1.135 0.227,-0.31 0.533,-0.465 0.916,-0.465 0.344,0 0.619,0.129 0.828,0.388 C -0.099,-0.624 0,-0.336 0,0 m 1.086,-1.988 -0.93,0 -0.049,0.757 -0.029,0 c -0.297,-0.576 -0.803,-0.864 -1.514,-0.864 -0.568,0 -1.041,0.223 -1.416,0.669 -0.375,0.446 -0.562,1.025 -0.562,1.736 0,0.763 0.203,1.381 0.611,1.853 0.395,0.44 0.879,0.66 1.455,0.66 0.633,0 1.076,-0.213 1.328,-0.64 l 0.02,0 0,2.706 1.049,0 0,-5.607 c 0,-0.459 0.012,-0.882 0.037,-1.27"
             id="path96"
             style="fill:#ffffff;fill-opacity:1;fill-rule:nonzero;stroke:none" /></g><g
           transform="translate(96.162,28.929)"
           id="g98"
           style="stroke:none"><path
             d="m 0,0 c 0,0.435 -0.094,0.808 -0.281,1.119 -0.221,0.376 -0.533,0.564 -0.941,0.564 -0.42,0 -0.74,-0.188 -0.961,-0.564 -0.188,-0.311 -0.281,-0.69 -0.281,-1.138 0,-0.435 0.094,-0.808 0.281,-1.119 0.227,-0.376 0.543,-0.564 0.951,-0.564 0.4,0 0.715,0.191 0.941,0.574 C -0.098,-0.811 0,-0.435 0,0 m 1.086,0.034 c 0,-0.725 -0.207,-1.319 -0.621,-1.785 -0.434,-0.479 -1.008,-0.718 -1.727,-0.718 -0.691,0 -1.242,0.229 -1.654,0.689 -0.41,0.459 -0.615,1.038 -0.615,1.736 0,0.73 0.211,1.329 0.635,1.794 0.424,0.465 0.994,0.698 1.713,0.698 0.691,0 1.248,-0.229 1.668,-0.688 0.4,-0.446 0.601,-1.022 0.601,-1.726"
             id="path100"
             style="fill:#ffffff;fill-opacity:1;fill-rule:nonzero;stroke:none" /></g><g
           transform="translate(102.883,26.567)"
           id="g102"
           style="stroke:none"><path
             d="m 0,0 -1.047,0 0,2.7 c 0,0.832 -0.316,1.248 -0.951,1.248 -0.311,0 -0.562,-0.114 -0.756,-0.343 C -2.948,3.376 -3.045,3.106 -3.045,2.797 l 0,-2.796 -1.049,0 0,3.366 c 0,0.414 -0.012,0.863 -0.037,1.349 l 0.92,0 0.049,-0.737 0.029,0 c 0.123,0.229 0.305,0.418 0.543,0.569 0.285,0.176 0.602,0.265 0.951,0.265 0.439,0 0.805,-0.142 1.096,-0.427 C -0.18,4.037 0,3.516 0,2.824 L 0,0 z"
             id="path104"
             style="fill:#ffffff;fill-opacity:1;fill-rule:nonzero;stroke:none" /></g><g
           transform="translate(109.936,30.496)"
           id="g106"
           style="stroke:none"><path
             d="m 0,0 -1.154,0 0,-2.29 c 0,-0.582 0.205,-0.873 0.611,-0.873 0.188,0 0.344,0.016 0.467,0.049 l 0.027,-0.795 c -0.207,-0.078 -0.479,-0.117 -0.814,-0.117 -0.414,0 -0.736,0.126 -0.969,0.378 -0.234,0.252 -0.35,0.676 -0.35,1.271 l 0,2.377 -0.689,0 0,0.785 0.689,0 0,0.864 1.027,0.31 0,-1.173 1.154,0 L -0.001,0 0,0 z"
             id="path108"
             style="fill:#ffffff;fill-opacity:1;fill-rule:nonzero;stroke:none" /></g><g
           transform="translate(115.484,26.567)"
           id="g110"
           style="stroke:none"><path
             d="m 0,0 -1.049,0 0,2.68 c 0,0.845 -0.316,1.268 -0.949,1.268 -0.486,0 -0.818,-0.245 -1,-0.735 C -3.029,3.11 -3.047,2.984 -3.047,2.836 l 0,-2.835 -1.047,0 0,6.876 1.047,0 0,-2.841 0.02,0 c 0.33,0.517 0.803,0.775 1.416,0.775 0.434,0 0.793,-0.142 1.078,-0.427 C -0.178,4.029 0,3.501 0,2.803 0,2.803 0,0 0,0"
             id="path112"
             style="fill:#ffffff;fill-opacity:1;fill-rule:nonzero;stroke:none" /></g><g
           transform="translate(120.207,29.418)"
           id="g114"
           style="stroke:none"><path
             d="M 0,0 C 0.008,0.311 -0.061,0.579 -0.203,0.805 -0.385,1.096 -0.662,1.242 -1.037,1.242 -1.379,1.242 -1.658,1.1 -1.871,0.815 -2.045,0.588 -2.148,0.317 -2.182,0 -2.182,0 0,0 0,0 M 1,-0.271 C 1,-0.459 0.986,-0.617 0.961,-0.746 l -3.143,0 c 0.014,-0.466 0.164,-0.821 0.455,-1.067 0.266,-0.22 0.609,-0.33 1.029,-0.33 0.465,0 0.889,0.074 1.271,0.223 l 0.164,-0.728 c -0.447,-0.194 -0.973,-0.291 -1.582,-0.291 -0.73,0 -1.305,0.215 -1.721,0.645 -0.418,0.43 -0.625,1.007 -0.625,1.731 0,0.711 0.193,1.303 0.582,1.775 0.406,0.504 0.955,0.756 1.648,0.756 0.678,0 1.193,-0.252 1.541,-0.756 C 0.861,0.812 1,0.317 1,-0.271"
             id="path116"
             style="fill:#ffffff;fill-opacity:1;fill-rule:nonzero;stroke:none" /></g></g></g></g></svg>