<svg xmlns="http://www.w3.org/2000/svg" width="89" height="21"><path d="M88.82 13.74l-8.12.75c1.61 4.34 6.36 1.18 6.36 1.18s.42.74 1.73 2.79c-3.04 3.04-7.52 2.05-7.52 2.05s-4.71-.65-5.34-5.99c-.54-4.54 1.13-6.83 2.62-8.01 1.85-1.46 5.73-2.54 8.33.09 2.6 2.64 1.94 7.14 1.94 7.14zm-6.39-4.83c-.39.04-1.89.44-2.1 2.33 0 0 1.88-1.55 4.3-.56-.39-1.88-1.81-1.81-2.2-1.77zm-11.85 3.07v8.36h-4.77v-14.9h3.92l.33 2.66s1.8-4.18 5.96-2.9c-.62 3.39-.9 4.52-.9 4.52s-2.88-1.77-4.54 2.26zm-10.8 6.37c-1.24 1.48-2.79 2.59-5.07 2.41-2.28-.18-4-1.96-4-6.03v-9.25h5.12v9.61s.9 3.08 3.48-.31v-9.34h4.86v14.88h-3.96s-.26-1.16-.43-1.97zm-10.83-1.96c.29 2.19.57 3.81.57 3.81s-3.95 1.64-6.59-.52c-2.39-1.9-1.94-6.15-1.94-6.15v-4.21h-3.7l-2 3.81 4.4 7.32h-5.46l-2.43-4.98-1.84 4.92h-5.15l4.49-7.96-4.09-6.99h5.19l2.21 4.57 1.74-4.67h6.93l.63-3.92h3.84l-.03 4.07h3.49v3.76h-3.39l-.04 5.52s.18 3.12 3.17 1.62zm-32.1-1.9c1.62 4.34 6.36 1.18 6.36 1.18s.42.74 1.73 2.79c-3.04 3.04-7.52 2.05-7.52 2.05s-4.7-.65-5.34-5.99c-.54-4.54 1.13-6.83 2.63-8.01 1.85-1.46 5.73-2.54 8.32.09 2.6 2.64 1.94 7.14 1.94 7.14l-8.12.75zm1.73-5.58c-.39.04-1.88.44-2.1 2.33 0 0 1.89-1.55 4.3-.56-.39-1.88-1.81-1.81-2.2-1.77zm-8.63 11.39h-4.97l.05-15.22h-4.94v-4.29h14.83v4.37h-4.97v15.14z" fill="#fff" fill-rule="evenodd"/></svg>