<svg xmlns="http://www.w3.org/2000/svg" width="34" height="34"><path d="M34 14.97v.36l-.01.1-.01.28v.06c-.39 6.68-5.55 14.01-12.48 18.24-.05-1.46-.34-2.95-.82-4.43-1.19.23-2.42.35-3.68.35-9.39 0-17-6.7-17-14.96 0-8.26 7.61-14.96 17-14.96 9.38 0 16.98 6.68 17 14.93v.03zm-25.05-7.02c-2.4-.87-3.6 1.65-3.6 1.65s3.21-.57 5.54 2.18c0 0 .46-2.96-1.94-3.83zm-3.6 9.3s-.98 4.88 4.68 6.55c4.56 1.35 6.42-2.57 6.42-2.57s-6.9 1.71-11.1-3.98zm13.68-6.15c-2.4-.87-3.61 1.65-3.61 1.65s3.21-.57 5.55 2.18c0 0 .46-2.96-1.94-3.83z" fill="#ffffff"/></svg>